<svg width="552" height="549" viewBox="0 0 552 549" xmlns="http://www.w3.org/2000/svg" xmlns:xlink="http://www.w3.org/1999/xlink">
    <defs>
        <path d="M15.447 7.014V3.991A3.855 3.855 0 0 0 11.598.13h-5.62A3.855 3.855 0 0 0 2.13 3.99v3.04c-.054-.004-.106-.016-.16-.016A1.91 1.91 0 0 0 .06 8.928c0 1.057.854 1.914 1.908 1.914.055 0 .107-.011.161-.016v.221c0 1.807.718 3.443 1.88 4.645L2.605 27.474h12.29l-1.393-11.71a6.671 6.671 0 0 0 1.944-4.717v-.205a1.91 1.91 0 0 0 1.908-1.914 1.91 1.91 0 0 0-1.908-1.914" id="62e945iohc"/>
        <path d="m16.41 2.634-2.147 5.38s3.158 2.9.654 4.46c-2.505 1.558-4.49 1.581-5.695 4.237-1.205 2.653-3.183 5.38-5.688 5.914 0 0-.167 2.656-3.533 2.214L6.846.059l9.563 2.575" id="46ae3hw3ce"/>
        <path d="M12.796 13.549c.134-.261.246-.54.331-.831l2.895-10.015L6.93.148 4.032 10.162a4.806 4.806 0 0 0-.134.671C2.257 11.075.811 12.198.266 13.86l-.088.27a2.05 2.05 0 0 0 1.342 2.588l9.906 3.156c1.095.35 2.27-.241 2.625-1.323l.088-.269a4.405 4.405 0 0 0-1.343-4.733" id="p58pqrkwwg"/>
        <path d="M3.968 20.728C.736 19.403-.802 15.724.532 12.512L5.666.156l11.14 6.162-4.569 10.996c-1.335 3.212-5.037 4.74-8.269 3.414" id="yvpohtce2i"/>
        <path d="M18.144 25.842c3.076-1.59 4.284-5.382 2.699-8.468L11.859.137.142 5.8l9.562 17.337a6.255 6.255 0 0 0 8.44 2.706" id="gi3w5texck"/>
        <path d="M6.642 13.929S10.01 4.436 3.504.66c-6.506-3.776-2.185 11.65 0 13.268h3.138" id="5x9440onsm"/>
        <path d="M.163 19.558S-1.43-2.107 8.33.241c9.76 2.348-4.132 19.317-4.132 19.317H.163" id="5n20izymoo"/>
        <path d="M.056 9.457S1.657-1.956 9.994.482c8.337 2.439-4.969 8.975-4.969 8.975H.056" id="5bl5zu4l3q"/>
        <filter x="-15.8%" y="-14.3%" width="131.6%" height="128.6%" filterUnits="objectBoundingBox" id="154jwxqt3a">
            <feOffset dx="-12" dy="12" in="SourceAlpha" result="shadowOffsetOuter1"/>
            <feColorMatrix values="0 0 0 0 0 0 0 0 0 0 0 0 0 0 0 0 0 0 0.1 0" in="shadowOffsetOuter1" result="shadowMatrixOuter1"/>
            <feMerge>
                <feMergeNode in="shadowMatrixOuter1"/>
                <feMergeNode in="SourceGraphic"/>
            </feMerge>
        </filter>
        <filter x="-19.8%" y="-16.5%" width="139.6%" height="132.9%" filterUnits="objectBoundingBox" id="9phkzni5hb">
            <feOffset dx="12" dy="12" in="SourceAlpha" result="shadowOffsetOuter1"/>
            <feColorMatrix values="0 0 0 0 0 0 0 0 0 0 0 0 0 0 0 0 0 0 0.1 0" in="shadowOffsetOuter1" result="shadowMatrixOuter1"/>
            <feMerge>
                <feMergeNode in="shadowMatrixOuter1"/>
                <feMergeNode in="SourceGraphic"/>
            </feMerge>
        </filter>
    </defs>
    <g fill="none" fill-rule="evenodd">
        <g transform="translate(62.637 130.81)">
            <path d="M10.106 249.554h411.32c5.523 0 10-4.477 10-10V10.083c0-5.523-4.477-10-10-10H10.106c-5.523 0-10 4.477-10 10v229.47c0 5.524 4.477 10 10 10z" fill="#BDB6ED"/>
            <path d="M9.542 249.47a9.542 9.542 0 0 0 9.543-9.542V9.542A9.542 9.542 0 1 0 0 9.542v230.386a9.542 9.542 0 0 0 9.542 9.543z" fill="#9B93CE"/>
            <path d="M0 17.183h431.32V10c0-5.523-4.477-10-10-10H10C4.477 0 0 4.477 0 10v7.183z" fill="#EFF1FC"/>
            <rect fill="#FF5F57" x="6.998" y="6.364" width="4.453" height="4.455" rx="2.227"/>
            <rect fill="#FFC548" x="13.996" y="6.364" width="4.453" height="4.455" rx="2.227"/>
            <rect fill="#66CE74" x="20.993" y="6.364" width="4.453" height="4.455" rx="2.227"/>
            <rect fill="#EEF0FC" x="29.264" y="28.638" width="94.152" height="147.646" rx="4"/>
            <rect fill="#FFF" x="34.353" y="41.366" width="83.974" height="20.365" rx="4"/>
            <rect fill="#FFF" x="34.353" y="130.463" width="83.974" height="20.365" rx="4"/>
            <rect fill="#FFF" x="34.353" y="79.551" width="83.974" height="20.365" rx="4"/>
            <rect fill="#FFF" x="34.353" y="105.007" width="83.974" height="20.365" rx="4"/>
            <ellipse fill="#847CBA" cx="105.603" cy="56.64" rx="2.545" ry="2.546"/>
            <ellipse fill="#847CBA" cx="105.603" cy="145.737" rx="2.545" ry="2.546"/>
            <ellipse fill="#847CBA" cx="105.603" cy="94.824" rx="2.545" ry="2.546"/>
            <ellipse fill="#847CBA" cx="105.603" cy="120.281" rx="2.545" ry="2.546"/>
            <ellipse fill="#847CBA" cx="111.965" cy="56.64" rx="2.545" ry="2.546"/>
            <ellipse fill="#847CBA" cx="111.965" cy="145.737" rx="2.545" ry="2.546"/>
            <ellipse fill="#847CBA" cx="111.965" cy="94.824" rx="2.545" ry="2.546"/>
            <ellipse fill="#847CBA" cx="111.965" cy="120.281" rx="2.545" ry="2.546"/>
            <rect fill="#02C7E6" x="38.17" y="43.912" width="15.904" height="1.273" rx=".636"/>
            <rect fill="#9281DD" x="38.17" y="133.009" width="15.904" height="1.273" rx=".636"/>
            <rect fill="#9281DD" x="38.17" y="82.096" width="15.904" height="1.273" rx=".636"/>
            <rect fill="#02C7E6" x="38.17" y="107.553" width="15.904" height="1.273" rx=".636"/>
            <rect fill="#FF80CE" x="56.619" y="43.912" width="15.904" height="1.273" rx=".636"/>
            <rect fill="#FF80CE" x="56.619" y="82.096" width="15.904" height="1.273" rx=".636"/>
            <rect fill="#FFF" x="34.353" y="64.277" width="83.974" height="10.182" rx="4"/>
            <rect fill="#FFF" x="34.353" y="153.374" width="83.974" height="10.182" rx="4"/>
            <rect fill="#EEF0FC" x="128.505" y="28.638" width="94.152" height="84.006" rx="4"/>
            <rect fill="#FFF" x="133.595" y="41.366" width="83.974" height="20.365" rx="4"/>
            <rect fill="#FFF" x="133.595" y="79.551" width="83.974" height="20.365" rx="4"/>
            <rect fill="#D5D8EB" x="133.595" y="105.007" width="41.351" height="2.546" rx="1.273"/>
            <ellipse fill="#847CBA" cx="204.845" cy="56.64" rx="2.545" ry="2.546"/>
            <ellipse fill="#847CBA" cx="204.845" cy="94.824" rx="2.545" ry="2.546"/>
            <ellipse fill="#847CBA" cx="211.207" cy="56.64" rx="2.545" ry="2.546"/>
            <ellipse fill="#847CBA" cx="211.207" cy="94.824" rx="2.545" ry="2.546"/>
            <rect fill="#02C7E6" x="137.412" y="43.912" width="15.904" height="1.273" rx=".636"/>
            <rect fill="#9281DD" x="137.412" y="82.096" width="15.904" height="1.273" rx=".636"/>
            <rect fill="#FF80CE" x="155.86" y="43.912" width="15.904" height="1.273" rx=".636"/>
            <rect fill="#FF80CE" x="155.86" y="82.096" width="15.904" height="1.273" rx=".636"/>
            <rect fill="#FFF" x="133.595" y="64.277" width="83.974" height="10.182" rx="4"/>
            <rect fill="#16274A" x="133.595" y="33.729" width="32.444" height="2.546" rx="1.273"/>
            <rect fill="#EBECF0" x="137.412" y="49.003" width="17.176" height="2.546" rx="1.273"/>
            <rect fill="#EBECF0" x="157.133" y="49.003" width="17.176" height="2.546" rx="1.273"/>
            <rect fill="#EBECF0" x="137.412" y="87.188" width="41.351" height="2.546" rx="1.273"/>
            <rect fill="#EBECF0" x="137.412" y="68.095" width="41.351" height="2.546" rx="1.273"/>
            <rect fill="#EBECF0" x="137.412" y="54.094" width="20.993" height="2.546" rx="1.273"/>
            <rect fill="#EEF0FC" x="227.747" y="28.638" width="94.152" height="198.559" rx="4"/>
            <rect fill="#FFF" x="232.836" y="41.366" width="83.974" height="20.365" rx="4"/>
            <rect fill="#FFF" x="232.836" y="130.463" width="83.974" height="20.365" rx="4"/>
            <rect fill="#FFF" x="232.836" y="79.551" width="83.974" height="20.365" rx="4"/>
            <rect fill="#FFF" x="232.836" y="168.647" width="83.974" height="20.365" rx="4"/>
            <rect fill="#FFF" x="232.836" y="105.007" width="83.974" height="20.365" rx="4"/>
            <rect fill="#FFF" x="232.836" y="194.104" width="83.974" height="20.365" rx="4"/>
            <ellipse fill="#847CBA" cx="304.087" cy="56.64" rx="2.545" ry="2.546"/>
            <ellipse fill="#847CBA" cx="304.087" cy="145.737" rx="2.545" ry="2.546"/>
            <ellipse fill="#847CBA" cx="304.087" cy="94.824" rx="2.545" ry="2.546"/>
            <ellipse fill="#847CBA" cx="304.087" cy="183.921" rx="2.545" ry="2.546"/>
            <ellipse fill="#847CBA" cx="304.087" cy="120.281" rx="2.545" ry="2.546"/>
            <ellipse fill="#847CBA" cx="304.087" cy="209.377" rx="2.545" ry="2.546"/>
            <ellipse fill="#847CBA" cx="310.449" cy="56.64" rx="2.545" ry="2.546"/>
            <ellipse fill="#847CBA" cx="310.449" cy="145.737" rx="2.545" ry="2.546"/>
            <ellipse fill="#847CBA" cx="310.449" cy="94.824" rx="2.545" ry="2.546"/>
            <ellipse fill="#847CBA" cx="310.449" cy="183.921" rx="2.545" ry="2.546"/>
            <ellipse fill="#847CBA" cx="310.449" cy="120.281" rx="2.545" ry="2.546"/>
            <ellipse fill="#847CBA" cx="310.449" cy="209.377" rx="2.545" ry="2.546"/>
            <rect fill="#02C7E6" x="236.653" y="43.912" width="15.904" height="1.273" rx=".636"/>
            <rect fill="#9281DD" x="236.653" y="133.009" width="15.904" height="1.273" rx=".636"/>
            <rect fill="#9281DD" x="236.653" y="82.096" width="15.904" height="1.273" rx=".636"/>
            <rect fill="#9281DD" x="236.653" y="171.193" width="15.904" height="1.273" rx=".636"/>
            <rect fill="#02C7E6" x="236.653" y="107.553" width="15.904" height="1.273" rx=".636"/>
            <rect fill="#02C7E6" x="236.653" y="196.649" width="15.904" height="1.273" rx=".636"/>
            <rect fill="#FF80CE" x="255.102" y="43.912" width="15.904" height="1.273" rx=".636"/>
            <rect fill="#FF80CE" x="255.102" y="82.096" width="15.904" height="1.273" rx=".636"/>
            <rect fill="#FF80CE" x="255.102" y="171.193" width="15.904" height="1.273" rx=".636"/>
            <rect fill="#FFF" x="232.836" y="64.277" width="83.974" height="10.182" rx="4"/>
            <rect fill="#FFF" x="232.836" y="153.374" width="83.974" height="10.182" rx="4"/>
            <rect fill="#16274A" x="232.836" y="33.729" width="32.444" height="2.546" rx="1.273"/>
            <rect fill="#EBECF0" x="236.653" y="49.003" width="17.176" height="2.546" rx="1.273"/>
            <rect fill="#EBECF0" x="256.375" y="49.003" width="17.176" height="2.546" rx="1.273"/>
            <rect fill="#EBECF0" x="236.653" y="138.1" width="46.44" height="2.546" rx="1.273"/>
            <rect fill="#EBECF0" x="236.653" y="87.188" width="41.351" height="2.546" rx="1.273"/>
            <rect fill="#EBECF0" x="236.653" y="176.284" width="41.351" height="2.546" rx="1.273"/>
            <rect fill="#EBECF0" x="236.653" y="112.644" width="41.351" height="2.546" rx="1.273"/>
            <rect fill="#EBECF0" x="236.653" y="201.741" width="41.351" height="2.546" rx="1.273"/>
            <rect fill="#EBECF0" x="280.549" y="112.644" width="10.815" height="2.546" rx="1.273"/>
            <rect fill="#EBECF0" x="280.549" y="201.741" width="10.815" height="2.546" rx="1.273"/>
            <rect fill="#EBECF0" x="236.653" y="68.095" width="41.351" height="2.546" rx="1.273"/>
            <rect fill="#EBECF0" x="236.653" y="157.192" width="21.63" height="2.546" rx="1.273"/>
            <rect fill="#D5D8EB" x="232.836" y="219.56" width="41.351" height="2.546" rx="1.273"/>
            <rect fill="#EBECF0" x="236.653" y="54.094" width="20.993" height="2.546" rx="1.273"/>
            <rect fill="#EBECF0" x="236.653" y="143.191" width="38.806" height="2.546" rx="1.273"/>
            <rect fill="#EBECF0" x="236.653" y="117.735" width="30.536" height="2.546" rx="1.273"/>
            <rect fill="#EBECF0" x="236.653" y="206.832" width="30.536" height="2.546" rx="1.273"/>
            <rect fill="#EEF0FC" x="326.989" y="28.638" width="94.152" height="147.646" rx="4"/>
            <rect fill="#FFF" x="332.078" y="41.366" width="83.974" height="20.365" rx="4"/>
            <rect fill="#FFF" x="332.078" y="130.463" width="83.974" height="20.365" rx="4"/>
            <rect fill="#FFF" x="332.078" y="79.551" width="83.974" height="20.365" rx="4"/>
            <rect fill="#FFF" x="332.078" y="105.007" width="83.974" height="20.365" rx="4"/>
            <ellipse fill="#847CBA" cx="403.329" cy="56.64" rx="2.545" ry="2.546"/>
            <ellipse fill="#847CBA" cx="403.329" cy="145.737" rx="2.545" ry="2.546"/>
            <ellipse fill="#847CBA" cx="403.329" cy="94.824" rx="2.545" ry="2.546"/>
            <ellipse fill="#847CBA" cx="403.329" cy="120.281" rx="2.545" ry="2.546"/>
            <ellipse fill="#847CBA" cx="409.69" cy="56.64" rx="2.545" ry="2.546"/>
            <ellipse fill="#847CBA" cx="409.69" cy="145.737" rx="2.545" ry="2.546"/>
            <ellipse fill="#847CBA" cx="409.69" cy="94.824" rx="2.545" ry="2.546"/>
            <ellipse fill="#847CBA" cx="409.69" cy="120.281" rx="2.545" ry="2.546"/>
            <rect fill="#02C7E6" x="335.895" y="43.912" width="15.904" height="1.273" rx=".636"/>
            <rect fill="#9281DD" x="335.895" y="133.009" width="15.904" height="1.273" rx=".636"/>
            <rect fill="#9281DD" x="335.895" y="82.096" width="15.904" height="1.273" rx=".636"/>
            <rect fill="#02C7E6" x="335.895" y="107.553" width="15.904" height="1.273" rx=".636"/>
            <rect fill="#FF80CE" x="354.344" y="43.912" width="15.904" height="1.273" rx=".636"/>
            <rect fill="#FF80CE" x="354.344" y="82.096" width="15.904" height="1.273" rx=".636"/>
            <rect fill="#FFF" x="332.078" y="64.277" width="83.974" height="10.182" rx="4"/>
            <rect fill="#FFF" x="332.078" y="153.374" width="83.974" height="10.182" rx="4"/>
            <rect fill="#16274A" x="332.078" y="33.729" width="32.444" height="2.546" rx="1.273"/>
            <rect fill="#EBECF0" x="335.895" y="49.003" width="17.176" height="2.546" rx="1.273"/>
            <rect fill="#EBECF0" x="355.616" y="49.003" width="17.176" height="2.546" rx="1.273"/>
            <rect fill="#EBECF0" x="335.895" y="138.1" width="46.44" height="2.546" rx="1.273"/>
            <rect fill="#EBECF0" x="335.895" y="87.188" width="41.351" height="2.546" rx="1.273"/>
            <rect fill="#EBECF0" x="335.895" y="112.644" width="41.351" height="2.546" rx="1.273"/>
            <rect fill="#EBECF0" x="379.791" y="112.644" width="10.815" height="2.546" rx="1.273"/>
            <rect fill="#EBECF0" x="335.895" y="68.095" width="41.351" height="2.546" rx="1.273"/>
            <rect fill="#EBECF0" x="335.895" y="157.192" width="21.63" height="2.546" rx="1.273"/>
            <rect fill="#D5D8EB" x="332.078" y="168.647" width="41.351" height="2.546" rx="1.273"/>
            <rect fill="#EBECF0" x="335.895" y="54.094" width="20.993" height="2.546" rx="1.273"/>
            <rect fill="#EBECF0" x="335.895" y="143.191" width="38.806" height="2.546" rx="1.273"/>
            <rect fill="#EBECF0" x="335.895" y="117.735" width="30.536" height="2.546" rx="1.273"/>
            <ellipse fill="#847CBA" cx="9.542" cy="34.366" rx="5.725" ry="5.728"/>
            <ellipse fill="#847CBA" cx="9.542" cy="98.006" rx="5.725" ry="5.728"/>
            <ellipse fill="#847CBA" cx="9.542" cy="66.186" rx="5.725" ry="5.728"/>
            <ellipse fill="#847CBA" cx="9.542" cy="129.827" rx="5.725" ry="5.728"/>
            <ellipse fill="#847CBA" cx="9.542" cy="50.276" rx="5.725" ry="5.728"/>
            <ellipse fill="#847CBA" cx="9.542" cy="113.917" rx="5.725" ry="5.728"/>
            <ellipse fill="#847CBA" cx="9.542" cy="82.096" rx="5.725" ry="5.728"/>
            <ellipse fill="#847CBA" cx="9.542" cy="145.737" rx="5.725" ry="5.728"/>
            <rect fill="#16274A" x="34.353" y="33.729" width="32.444" height="2.546" rx="1.273"/>
            <rect fill="#EBECF0" x="38.17" y="49.003" width="17.176" height="2.546" rx="1.273"/>
            <rect fill="#EBECF0" x="57.891" y="49.003" width="17.176" height="2.546" rx="1.273"/>
            <rect fill="#EBECF0" x="38.17" y="138.1" width="46.44" height="2.546" rx="1.273"/>
            <rect fill="#EBECF0" x="38.17" y="87.188" width="41.351" height="2.546" rx="1.273"/>
            <rect fill="#EBECF0" x="38.17" y="112.644" width="41.351" height="2.546" rx="1.273"/>
            <rect fill="#EBECF0" x="82.065" y="112.644" width="10.815" height="2.546" rx="1.273"/>
            <rect fill="#EBECF0" x="38.17" y="68.095" width="41.351" height="2.546" rx="1.273"/>
            <rect fill="#EBECF0" x="38.17" y="157.192" width="21.63" height="2.546" rx="1.273"/>
            <rect fill="#D5D8EB" x="34.353" y="168.647" width="41.351" height="2.546" rx="1.273"/>
            <rect fill="#EBECF0" x="38.17" y="54.094" width="20.993" height="2.546" rx="1.273"/>
            <rect fill="#EBECF0" x="38.17" y="143.191" width="38.806" height="2.546" rx="1.273"/>
            <rect fill="#EBECF0" x="38.17" y="117.735" width="30.536" height="2.546" rx="1.273"/>
        </g>
        <g filter="url(#154jwxqt3a)" transform="translate(389.625 17)">
            <rect fill="#EEF0FC" width="145.375" height="161.007" rx="4"/>
            <rect fill="#D0D4EE" x="47.008" y="22.567" width="40.121" height="8.858" rx="4"/>
            <rect fill="#D0D4EE" x="5.844" y="49.141" width="81.285" height="5.732" rx="2.866"/>
            <rect fill="#D0D4EE" x="13.547" y="66.174" width="73.469" height="5.732" rx="2.866"/>
            <rect fill="#D0D4EE" x="13.547" y="73.99" width="73.469" height="5.732" rx="2.866"/>
            <rect fill="#D0D4EE" x="105.366" y="22.567" width="34.39" height="8.858" rx="4"/>
            <rect fill="#D0D4EE" x="105.366" y="44.973" width="34.39" height="8.858" rx="4"/>
            <rect fill="#D0D4EE" x="105.366" y="122.089" width="34.39" height="8.858" rx="4"/>
            <rect fill="#D0D4EE" x="105.366" y="133.031" width="34.39" height="8.858" rx="4"/>
            <rect fill="#D0D4EE" x="105.366" y="143.973" width="34.39" height="8.858" rx="4"/>
            <rect fill="#D0D4EE" x="105.366" y="66.857" width="34.39" height="8.858" rx="4"/>
            <rect fill="#D0D4EE" x="105.366" y="88.741" width="34.39" height="8.858" rx="4"/>
            <rect fill="#D0D4EE" x="105.366" y="55.915" width="34.39" height="8.858" rx="4"/>
            <rect fill="#D0D4EE" x="105.366" y="77.799" width="34.39" height="8.858" rx="4"/>
            <rect fill="#D0D4EE" x="105.366" y="99.684" width="34.39" height="8.858" rx="4"/>
            <rect fill="#16274A" x="5.619" y="5.606" width="32.499" height="2.542" rx="1.271"/>
            <rect fill="#16274A" x="48.867" y="5.606" width="16.153" height="2.542" rx="1.271"/>
            <rect fill="#BEC2D9" x="5.619" y="16.548" width="16.153" height="1.563" rx=".782"/>
            <rect fill="#BEC2D9" x="5.619" y="44.164" width="16.153" height="1.563" rx=".782"/>
            <rect fill="#BEC2D9" x="5.619" y="62.401" width="10.942" height="1.563" rx=".782"/>
            <rect fill="#BEC2D9" x="46.782" y="16.548" width="16.153" height="1.563" rx=".782"/>
            <rect fill="#BEC2D9" x="105.141" y="16.548" width="16.153" height="1.563" rx=".782"/>
            <rect fill="#BEC2D9" x="105.141" y="38.954" width="16.153" height="1.563" rx=".782"/>
            <rect fill="#BEC2D9" x="105.141" y="116.07" width="16.153" height="1.563" rx=".782"/>
            <rect fill="#16274A" x="40.53" y="5.606" width="6.253" height="2.542" rx="1.271"/>
            <circle fill="#847CBA" cx="10.09" cy="27.248" r="4.429"/>
            <circle fill="#847CBA" cx="8.597" cy="69.04" r="2.866"/>
            <circle fill="#D0D4EE" cx="8.597" cy="76.856" r="2.866"/>
            <circle fill="#847CBA" cx="21.032" cy="27.248" r="4.429"/>
            <circle fill="#D0D4EE" cx="31.975" cy="27.248" r="4.429"/>
        </g>
        <g filter="url(#9phkzni5hb)" transform="translate(17 337.249)">
            <rect fill="#EEF0FC" width="116.196" height="139.643" rx="4"/>
            <path fill="#F8F9FF" d="M0 83.89h116.196v45.332H0z"/>
            <rect fill="#FFF" x="5.211" y="10.942" width="105.775" height="25.532" rx="4"/>
            <rect fill="#FFF" x="5.211" y="40.121" width="31.784" height="25.532" rx="4"/>
            <rect fill="#FFF" x="5.211" y="91.706" width="31.784" height="29.7" rx="4"/>
            <rect fill="#FFF" x="42.206" y="40.121" width="31.784" height="25.532" rx="4"/>
            <rect fill="#FFF" x="79.201" y="40.121" width="31.784" height="25.532" rx="4"/>
            <rect fill="#16274A" x="5.098" y="5.085" width="2.605" height="2.542" rx="1.271"/>
            <rect fill="#16274A" x="5.098" y="133.786" width="2.605" height="2.542" rx="1.271"/>
            <rect fill="#16274A" x="8.337" y="5.211" width="2.605" height="2.542" rx="1.271"/>
            <rect fill="#16274A" x="8.337" y="133.912" width="2.605" height="2.542" rx="1.271"/>
            <rect fill="#16274A" x="80.764" y="5.732" width="6.774" height="1.042" rx=".521"/>
            <rect fill="#16274A" x="80.764" y="134.433" width="6.774" height="1.042" rx=".521"/>
            <rect fill="#16274A" x="88.58" y="5.732" width="6.774" height="1.042" rx=".521"/>
            <rect fill="#16274A" x="88.58" y="134.433" width="6.774" height="1.042" rx=".521"/>
            <rect fill="#16274A" x="96.396" y="5.732" width="6.774" height="1.042" rx=".521"/>
            <rect fill="#16274A" x="96.396" y="134.433" width="6.774" height="1.042" rx=".521"/>
            <rect fill="#16274A" x="104.211" y="5.732" width="6.774" height="1.042" rx=".521"/>
            <rect fill="#16274A" x="104.211" y="134.433" width="6.774" height="1.042" rx=".521"/>
            <rect fill="#D0D4EE" x="5.228" y="68.797" width="8.337" height="2.084" rx="1.042"/>
            <rect fill="#D0D4EE" x="79.218" y="68.797" width="8.337" height="2.084" rx="1.042"/>
            <rect fill="#D0D4EE" x="42.223" y="68.797" width="18.758" height="2.084" rx="1.042"/>
            <rect fill="#D0D4EE" x="42.223" y="96.414" width="18.758" height="2.084" rx="1.042"/>
            <rect fill="#D0D4EE" x="42.223" y="103.708" width="18.758" height="2.084" rx="1.042"/>
            <rect fill="#D0D4EE" x="62.544" y="96.414" width="11.463" height="2.084" rx="1.042"/>
            <rect fill="#D0D4EE" x="62.544" y="103.708" width="11.463" height="2.084" rx="1.042"/>
            <rect fill="#D0D4EE" x="75.571" y="96.414" width="18.758" height="2.084" rx="1.042"/>
            <rect fill="#FF80CE" x="42.223" y="115.693" width="18.758" height="5.732" rx="2.866"/>
            <rect fill="#D0D4EE" x="5.228" y="71.924" width="15.111" height="2.084" rx="1.042"/>
            <rect fill="#D0D4EE" x="79.218" y="71.924" width="15.111" height="2.084" rx="1.042"/>
            <rect fill="#D0D4EE" x="42.223" y="71.924" width="6.774" height="2.084" rx="1.042"/>
            <rect fill="#D0D4EE" x="42.223" y="99.54" width="6.774" height="2.084" rx="1.042"/>
            <rect fill="#D0D4EE" x="51.602" y="99.54" width="18.758" height="2.084" rx="1.042"/>
            <rect fill="#D0D4EE" x="51.602" y="106.835" width="18.758" height="2.084" rx="1.042"/>
            <rect fill="#D0D4EE" x="14.086" y="68.797" width="11.984" height="2.084" rx="1.042"/>
            <rect fill="#D0D4EE" x="88.076" y="68.797" width="11.984" height="2.084" rx="1.042"/>
            <path d="M62.546 19.8c.552 0 1.012.447 1.012 1.012v6.033c0 .552-.447 1.012-1.012 1.012H54.16a1.013 1.013 0 0 1-1.012-1.012v-6.033h.013c0-.552.447-1.012 1.012-1.012h8.373zm-.171.513H54.33a.657.657 0 0 0-.67.67v5.691c0 .368.302.67.67.67h8.044c.368 0 .67-.302.67-.67v-5.69a.673.673 0 0 0-.67-.671zm-4.666 3.338 1.906 2.458.525-.67c.29-.368.75-.368 1.025 0l1.105 1.42H54.2v-.014l2.483-3.194c.29-.368.75-.368 1.026 0zm3.325-2.34a.841.841 0 1 1 0 1.683.841.841 0 0 1 0-1.682zM25.55 48.98c.553 0 1.013.446 1.013 1.011v6.033c0 .552-.447 1.013-1.012 1.013h-8.386a1.013 1.013 0 0 1-1.012-1.013v-6.033h.013c0-.552.447-1.012 1.012-1.012h8.373zm-.17.512h-8.044a.657.657 0 0 0-.67.67v5.692c0 .368.302.67.67.67h8.044c.368 0 .67-.302.67-.67v-5.692a.673.673 0 0 0-.67-.67zm-4.666 3.339 1.905 2.457.526-.67c.29-.368.75-.368 1.025 0l1.104 1.42h-8.07v-.014l2.484-3.193c.29-.369.75-.369 1.026 0zm3.325-2.34a.841.841 0 1 1 0 1.682.841.841 0 0 1 0-1.682zM62.546 48.98c.552 0 1.012.446 1.012 1.011v6.033c0 .552-.447 1.013-1.012 1.013H54.16a1.013 1.013 0 0 1-1.012-1.013v-6.033h.013c0-.552.447-1.012 1.012-1.012h8.373zm-.171.512H54.33a.657.657 0 0 0-.67.67v5.692c0 .368.302.67.67.67h8.044c.368 0 .67-.302.67-.67v-5.692a.673.673 0 0 0-.67-.67zm-4.666 3.339 1.906 2.457.525-.67c.29-.368.75-.368 1.025 0l1.105 1.42H54.2v-.014l2.483-3.193c.29-.369.75-.369 1.026 0zm3.325-2.34a.841.841 0 1 1 0 1.682.841.841 0 0 1 0-1.682zM99.54 48.98c.553 0 1.013.446 1.013 1.011v6.033c0 .552-.447 1.013-1.012 1.013h-8.386a1.013 1.013 0 0 1-1.012-1.013v-6.033h.013c0-.552.447-1.012 1.012-1.012h8.373zm-.17.512h-8.044a.657.657 0 0 0-.67.67v5.692c0 .368.302.67.67.67h8.044c.368 0 .67-.302.67-.67v-5.692a.673.673 0 0 0-.67-.67zm-4.666 3.339 1.906 2.457.525-.67c.29-.368.75-.368 1.025 0l1.105 1.42h-8.07v-.014l2.484-3.193c.289-.369.749-.369 1.025 0zm3.325-2.34a.841.841 0 1 1 0 1.682.841.841 0 0 1 0-1.682z" fill="#847CBA" fill-rule="nonzero"/>
        </g>
        <g>
            <path d="M325.16 397.344h-77.123c-2.673 0-4.84-2.177-4.84-4.864v-37.092c0-2.687 2.167-4.864 4.84-4.864h77.122c2.674 0 4.84 2.177 4.84 4.864v37.092c0 2.687-2.166 4.864-4.84 4.864" fill="#160034"/>
            <path d="M248.306 351.84a4.06 4.06 0 0 0-4.056 4.053v37.134a4.06 4.06 0 0 0 4.056 4.054h77.637a4.06 4.06 0 0 0 4.057-4.054v-37.134a4.06 4.06 0 0 0-4.057-4.054h-77.637m77.59 46.82h-77.544c-3.132 0-5.68-2.544-5.68-5.672v-37.054c0-3.127 2.548-5.672 5.68-5.672h77.545c3.133 0 5.681 2.545 5.681 5.672v37.054c0 3.128-2.548 5.673-5.681 5.673" fill="#F0E6FF"/>
            <g fill-rule="nonzero">
                <path d="M288.877 371.624v4.751c0 1.084-.511 1.811-2.407 1.811v-1.306c.394-.02.569-.168.569-.542v-4.714h1.838zm2.87-.148c1.27 0 2.122.421 2.233 1.616h-1.654a.498.498 0 0 0-.549-.458c-.337 0-.485.149-.485.337 0 .189.222.317.765.374 1.41.168 2.064.501 2.064 1.559 0 1.202-.916 1.717-2.297 1.717-1.38 0-2.273-.583-2.3-1.7h1.684a.522.522 0 0 0 .606.505c.337 0 .512-.142.512-.337 0-.195-.205-.337-.859-.41-1.317-.149-1.892-.506-1.892-1.55 0-1.12.98-1.653 2.172-1.653zm-10.713-.01c1.374 0 2.54.785 2.54 2.539v.448h-3.379a.875.875 0 0 0 .916.912c.512 0 .711-.242.765-.522h1.717c-.148 1.121-1.01 1.774-2.549 1.774s-2.704-.895-2.704-2.508v-.074c0-1.59 1.212-2.569 2.694-2.569zm-6.513.142v2.882c0 .494.185.747.616.747s.727-.27.727-.848v-2.781h1.84v4.881h-1.84v-.757a1.583 1.583 0 0 1-1.549.879c-.933 0-1.633-.573-1.633-1.802v-3.201h1.839zm10.598 2.972a1.01 1.01 0 1 1 0 2.02 1.01 1.01 0 0 1 0-2.02zm-17.014-4.764 1.243 4.468 1.24-4.468h1.98l-2.156 6.673h-2.391l-2.203-6.673h2.287zm12.939 2.835c-.495 0-.764.29-.839.842h1.607c-.02-.525-.273-.842-.768-.842zm7.61-3.165a1.01 1.01 0 0 1-.68 1.755.943.943 0 0 1-1.01-.926 1.01 1.01 0 0 1 1.69-.829z" fill="#FF5323"/>
                <path d="M314.877 372.264v-.673h1.838v4.478c0 1.454-.963 2.228-2.781 2.228-1.667 0-2.469-.69-2.6-1.845h1.818c.068.297.236.576.805.576a.832.832 0 0 0 .933-.932v-.755a1.633 1.633 0 0 1-1.485.859c-1.111 0-2.044-.805-2.044-2.316v-.075c0-1.4.844-2.278 1.878-2.351l.142-.005a1.553 1.553 0 0 1 1.496.811zm5.183-.798c1.374 0 2.539.785 2.539 2.539v.448h-3.378a.875.875 0 0 0 .916.912c.512 0 .71-.242.765-.522h1.717c-.148 1.121-1.01 1.774-2.55 1.774-1.538 0-2.704-.895-2.704-2.508v-.074c0-1.59 1.213-2.569 2.695-2.569zm-15.842.01c1.542 0 2.694.943 2.694 2.512v.074c0 1.606-1.196 2.549-2.718 2.549s-2.704-.91-2.704-2.502v-.074c0-1.59 1.185-2.559 2.728-2.559zm-2.998-1.66v1.633h-2.502v1.24h2.02v1.558h-2.02v2.242H296.6v-6.673h4.62zm9.74 1.724v1.717c-1.01-.054-1.57.283-1.57.983v2.25h-1.838v-4.882h1.839v.99a1.532 1.532 0 0 1 1.569-1.058zm-6.742 1.303c-.57 0-.87.384-.87 1.148v.074c0 .795.28 1.206.87 1.206.589 0 .821-.425.821-1.199h.017v-.054c0-.764-.27-1.175-.838-1.175zm9.884-.013c-.552 0-.859.384-.859 1.01v.074c0 .596.3.99.86.99.558 0 .858-.404.858-1.02v-.064c0-.6-.307-.99-.859-.99zm5.968-.179c-.495 0-.765.29-.839.842h1.607c-.02-.525-.273-.842-.768-.842z" fill="#FDB92C"/>
                <path fill="#FF5323" d="M256.594 373.513h.552l1.391-2.394h-3.344l-.643-1.1h4.624l1.39-2.398H250.3l2.027 3.498H250.3l1.4 2.394h2.018l3.795 6.549v-4.977z"/>
                <path fill="#FDB92C" d="M257.513 375.085v4.977l7.214-12.44h-2.883z"/>
            </g>
            <path d="M189.635 539.287h-.106c-1.206 0-2.183-1.002-2.183-2.239v-88.9c0-1.236.977-2.24 2.183-2.24h.106c1.206 0 2.183 1.004 2.183 2.24v88.9c0 1.237-.977 2.239-2.183 2.239M206.711 519.822h-.59c-1.071 0-1.94-.892-1.94-1.993v-69.927c0-1.1.869-1.993 1.94-1.993h.59c1.072 0 1.941.894 1.941 1.993v69.927c0 1.101-.869 1.993-1.94 1.993" fill="#523080"/>
            <path fill="#2D174A" d="M187.346 453.537h4.472v-4.472h-4.472zM204.18 451.17h4.472v-2.368h-4.471z"/>
            <path d="M390.226 539.287h.106c1.206 0 2.183-1.002 2.183-2.239v-88.9c0-1.236-.977-2.24-2.183-2.24h-.106c-1.206 0-2.183 1.004-2.183 2.24v88.9c0 1.237.977 2.239 2.183 2.239M373.413 519.822h.59c1.072 0 1.94-.892 1.94-1.993v-69.927c0-1.1-.868-1.993-1.94-1.993h-.59c-1.072 0-1.941.894-1.941 1.993v69.927c0 1.101.869 1.993 1.941 1.993" fill="#523080"/>
            <path fill="#2D174A" d="M388.043 453.537h4.472v-4.472h-4.472zM371.472 451.17h4.472v-2.368h-4.472z"/>
            <path fill="#523080" d="M405.667 445.909h-231.21l31.73-30.775h163.674l35.806 30.775"/>
            <path fill="#3F2266" d="M174.457 449.065h231.21v-3.42h-231.21z"/>
            <path d="M343.175 439.86H228.534c-1.212 0-1.901-1.376-1.168-2.335l12.105-15.829c.275-.36.702-.572 1.156-.575l92.03-.727c.508-.005.983.252 1.254.68l10.503 16.556c.615.967-.086 2.23-1.24 2.23" fill="#72C4F4"/>
            <g transform="translate(278.094 364.368)">
                <mask id="4wn4go7e6d" fill="#fff">
                    <use xlink:href="#62e945iohc"/>
                </mask>
                <path d="M15.447 7.014V3.991A3.855 3.855 0 0 0 11.598.13h-5.62A3.855 3.855 0 0 0 2.13 3.99v3.04c-.054-.004-.106-.016-.16-.016A1.91 1.91 0 0 0 .06 8.928c0 1.057.854 1.914 1.908 1.914.055 0 .107-.011.161-.016v.221c0 1.807.718 3.443 1.88 4.645L2.605 27.474h12.29l-1.393-11.71a6.671 6.671 0 0 0 1.944-4.717v-.205a1.91 1.91 0 0 0 1.908-1.914 1.91 1.91 0 0 0-1.908-1.914" fill="#F49BA0" mask="url(#4wn4go7e6d)"/>
            </g>
            <path d="M297.106 357.266h-10.357c-11.812 0-8.164 6.024-8.164 6.024-1.223 2.351-.734 5.29-.103 7.352 1.346 6.396 8.267 6.614 8.267 6.614 7.18-.736 8.119-6.614 8.119-6.614.63-2.061 1.12-5-.104-7.352-.036-.07-.082-.13-.122-.198 3.67-1.367 2.464-5.826 2.464-5.826" fill="#573119"/>
            <g transform="translate(230.484 521.664)">
                <mask id="28nyy6nd6f" fill="#fff">
                    <use xlink:href="#46ae3hw3ce"/>
                </mask>
                <path d="m16.41 2.634-2.147 5.38s3.158 2.9.654 4.46c-2.505 1.558-4.49 1.581-5.695 4.237-1.205 2.653-3.183 5.38-5.688 5.914 0 0-.167 2.656-3.533 2.214L6.846.059l9.563 2.575" fill="#E48B90" mask="url(#28nyy6nd6f)"/>
            </g>
            <path d="m277.562 482.226-27.873 47.066-15.785-6.389s13.884-80.918 49.977-61.672l-6.32 20.995" fill="#273168"/>
            <g transform="translate(291.246 524.03)">
                <mask id="ml2sbkno6h" fill="#fff">
                    <use xlink:href="#p58pqrkwwg"/>
                </mask>
                <path d="M12.796 13.549c.134-.261.246-.54.331-.831l2.895-10.015L6.93.148 4.032 10.162a4.806 4.806 0 0 0-.134.671C2.257 11.075.811 12.198.266 13.86l-.088.27a2.05 2.05 0 0 0 1.342 2.588l9.906 3.156c1.095.35 2.27-.241 2.625-1.323l.088-.269a4.405 4.405 0 0 0-1.343-4.733" fill="#E48B90" mask="url(#ml2sbkno6h)"/>
            </g>
            <path d="m299.906 472.615-7.082 52.627 16.42 3.26s31.814-75.615-8.21-79.174l-1.128 23.287" fill="#273168"/>
            <path d="m251.17 419.28 10.701-.464.44 10.506-9.964 1.759c-3.132.553-6.19-1.285-7.129-4.284-1.21-3.865 1.856-7.738 5.951-7.516" fill="#E48B90"/>
            <g transform="translate(244.425 410.136)">
                <mask id="4ugbwe6goj" fill="#fff">
                    <use xlink:href="#yvpohtce2i"/>
                </mask>
                <path d="M3.968 20.728C.736 19.403-.802 15.724.532 12.512L5.666.156l11.14 6.162-4.569 10.996c-1.335 3.212-5.037 4.74-8.269 3.414" fill="#F49BA0" mask="url(#4ugbwe6goj)"/>
            </g>
            <path d="m323.368 437.58-13.447-4.993.39-9.562 15.452 3.034c2.495.49 4.272 3.213 4.143 6.347-.169 4.04-3.535 6.706-6.538 5.173" fill="#E48B90"/>
            <g transform="translate(310.184 411.451)">
                <mask id="nqnfgtpr2l" fill="#fff">
                    <use xlink:href="#gi3w5texck"/>
                </mask>
                <path d="M18.144 25.842c3.076-1.59 4.284-5.382 2.699-8.468L11.859.137.142 5.8l9.562 17.337a6.255 6.255 0 0 0 8.44 2.706" fill="#F49BA0" mask="url(#nqnfgtpr2l)"/>
            </g>
            <path d="m328.07 408.686-6.57-8.415c-1.088-1.392-2.06-2.869-3.015-4.354-4.314-6.703-11.736-10.448-19.356-10.311a15.129 15.129 0 0 0-2.406-.196H275.28c-.82 0-1.622.07-2.403.195-7.52-.031-14.808 3.71-19.06 10.335-1.293 2.013-2.785 3.89-4.33 5.716l-4.799 5.672 17.057 9.774 1.317 31.835a1.78 1.78 0 0 0 1.778 1.707h42.321a1.78 1.78 0 0 0 1.78-1.707l1.309-31.67 17.82-8.58" fill="#5678BB"/>
            <path fill="#2D174A" d="M283.355 527.187h6.313V492.73h-6.313zM310.807 491.151h-48.065c-2.562 0-4.639-2.057-4.639-4.596v-47.624c0-2.539 2.077-4.596 4.639-4.596h48.065c2.56 0 4.638 2.057 4.638 4.596v47.624c0 2.54-2.078 4.596-4.638 4.596"/>
            <path d="M308.806 440.648h-43.538c-.18 0-.326-.117-.326-.262 0-.146.146-.264.326-.264h43.538c.18 0 .326.118.326.264 0 .145-.146.262-.326.262M308.806 448.276h-43.538c-.18 0-.326-.118-.326-.263 0-.145.146-.263.326-.263h43.538c.18 0 .326.118.326.263 0 .145-.146.263-.326.263M308.806 455.378h-43.538c-.18 0-.326-.118-.326-.263 0-.145.146-.263.326-.263h43.538c.18 0 .326.118.326.263 0 .145-.146.263-.326.263M308.806 463.006h-43.538c-.18 0-.326-.118-.326-.263 0-.146.146-.263.326-.263h43.538c.18 0 .326.117.326.263 0 .145-.146.263-.326.263M308.806 470.634h-43.538c-.18 0-.326-.118-.326-.263 0-.146.146-.263.326-.263h43.538c.18 0 .326.117.326.263 0 .145-.146.263-.326.263M308.806 478.262h-43.538c-.18 0-.326-.118-.326-.263 0-.146.146-.263.326-.263h43.538c.18 0 .326.117.326.263 0 .145-.146.263-.326.263M308.806 485.89h-43.538c-.18 0-.326-.118-.326-.263 0-.146.146-.263.326-.263h43.538c.18 0 .326.117.326.263 0 .145-.146.264-.326.264" fill="#523080"/>
            <path d="M293.97 495.886h-14.13c-4.16 0-7.533-3.343-7.533-7.47v-26.2c0-2.032 1.662-3.681 3.712-3.681h21.772c2.05 0 3.713 1.649 3.713 3.68v26.2c0 4.128-3.373 7.47-7.534 7.47" fill="#523080"/>
            <path fill="#3F2266" d="M286.774 524.557v9.078l-33.406 6.967 1.473-5.7 31.933-10.345"/>
            <path fill="#523080" d="M286.774 524.557v9.078l33.406 6.967-1.473-5.7-31.933-10.345M255.604 547.967c-1.234 0-2.236-1.057-2.236-2.36v-5.276c0-1.302 1.002-2.36 2.236-2.36 1.235 0 2.236 1.058 2.236 2.36v5.277c0 1.302-1 2.36-2.236 2.36"/>
            <path d="M318.208 547.967c-1.235 0-2.237-1.057-2.237-2.36v-5.276c0-1.302 1.002-2.36 2.237-2.36 1.233 0 2.235 1.058 2.235 2.36v5.277c0 1.302-1.002 2.36-2.235 2.36" fill="#523080"/>
            <path d="M221.541 423.42c0 1.089-3.945 1.972-8.812 1.972-4.866 0-8.811-.883-8.811-1.973s3.945-1.972 8.811-1.972c4.867 0 8.812.881 8.812 1.972" fill="#007CF4"/>
            <path d="M211.969 412.503s3.448-9.367-3.214-13.092c-6.66-3.726-2.236 11.495 0 13.092h3.214" fill="#63C7BB"/>
            <g transform="translate(205.233 398.562)">
                <mask id="kflfutlpqn" fill="#fff">
                    <use xlink:href="#5x9440onsm"/>
                </mask>
                <path d="M3.963 14.237c-.368-2.822-1.228-5.59-2.06-8.268C1.336 4.139.749 2.247.32.349L.544.294c.426 1.89 1.013 3.778 1.58 5.603.834 2.687 1.698 5.466 2.067 8.308l-.228.031M5.542 14.285c-.183-1.833-.373-3.729-.863-5.542-.321-1.19-.779-2.367-1.222-3.506-.72-1.851-1.464-3.765-1.64-5.78l.23-.022c.174 1.982.911 3.88 1.625 5.715.445 1.145.906 2.33 1.23 3.531.494 1.832.685 3.737.87 5.581l-.23.023M7.17 14.165c-.086-2.32-.275-4.78-1.072-7.055-.294-.837-.676-1.67-1.046-2.476-.797-1.736-1.62-3.53-1.605-5.467l.231.002c-.015 1.883.798 3.653 1.583 5.365.372.811.758 1.65 1.055 2.497.807 2.305.998 4.787 1.083 7.125l-.23.01" fill="#88CFCA" mask="url(#kflfutlpqn)"/>
            </g>
            <path d="M210.325 412.503s-1.569-21.923 8.053-19.547c9.62 2.375-4.074 19.547-4.074 19.547h-3.979" fill="#88CFCA"/>
            <g transform="translate(210.23 393.039)">
                <mask id="scqw55ij3p" fill="#fff">
                    <use xlink:href="#5n20izymoo"/>
                </mask>
                <path d="M1.253 19.95C2.503 12.965 2.833 5.271 7.57-.47c.142-.173-.106-.421-.25-.247C2.533 5.086 2.176 12.795.913 19.857c-.04.22.3.314.34.092M10.525-.62C6 5.704 5.12 13.637 1.93 20.573c-.094.205.21.381.304.177C5.422 13.817 6.306 5.877 10.83-.444c.132-.184-.174-.359-.305-.177M11.933 1.794c-3.213 5.564-4.547 12.015-8.2 17.35-.128.187.178.362.305.177 3.653-5.336 4.987-11.787 8.2-17.351.112-.195-.193-.371-.305-.176" fill="#63C7BB" mask="url(#scqw55ij3p)"/>
            </g>
            <path d="M212.072 412.503s1.56-11.6 9.686-9.122c8.126 2.479-4.843 9.122-4.843 9.122h-4.843" fill="#63C7BB"/>
            <g transform="translate(211.809 403.034)">
                <mask id="mjzx7gmc3r" fill="#fff">
                    <use xlink:href="#5bl5zu4l3q"/>
                </mask>
                <path d="m3.512 9.766-.166-.169C4.74 8.268 6.397 7.18 7.999 6.127c2.168-1.425 4.409-2.898 5.971-4.966l.192.14c-1.587 2.1-3.846 3.584-6.03 5.02-1.593 1.047-3.24 2.13-4.62 3.445M1.384 9.881l-.177-.156A79.794 79.794 0 0 1 12.4-.305l.144.187a79.603 79.603 0 0 0-11.16 10M.509 9.846l-.199-.13 3.433-5.03c.399-.584.811-1.189 1.27-1.748C6.024 1.71 7.272.688 8.477-.302l.154.18C7.433.858 6.195 1.874 5.199 3.084c-.453.55-.862 1.15-1.258 1.731L.51 9.846" fill="#88CFCA" mask="url(#mjzx7gmc3r)"/>
            </g>
            <path d="m215.944 395.652-.174-.404.389-.168a.2.2 0 1 0-.159-.368l-.39.167-.173-.404a.201.201 0 0 0-.369.159l.175.404-.42.18a.2.2 0 1 0 .159.369l.42-.18.173.403a.2.2 0 1 0 .369-.158M212.787 405.91l-.174-.404.39-.167a.2.2 0 1 0-.159-.369l-.39.168-.174-.404a.2.2 0 0 0-.368.158l.174.404-.419.18a.2.2 0 1 0 .159.369l.419-.18.174.404a.201.201 0 0 0 .263.105.2.2 0 0 0 .105-.264M217.785 399.071l-.174-.404.39-.167a.2.2 0 1 0-.16-.369l-.389.168-.174-.404a.2.2 0 0 0-.368.158l.174.404-.42.18a.2.2 0 0 0 .16.369l.418-.18.174.404a.2.2 0 1 0 .369-.159M216.47 403.017l-.174-.404.39-.168a.2.2 0 1 0-.16-.368l-.389.167-.174-.404a.2.2 0 0 0-.369.159l.175.404-.42.18a.2.2 0 0 0 .16.369l.418-.18.174.403a.201.201 0 0 0 .264.106.2.2 0 0 0 .105-.264M221.204 398.02l-.174-.405.39-.168a.2.2 0 1 0-.159-.368l-.39.167-.174-.403a.2.2 0 1 0-.368.158l.174.404-.419.18a.2.2 0 0 0 .159.369l.419-.18.174.404a.201.201 0 0 0 .263.105.2.2 0 0 0 .105-.264M219.89 401.702l-.175-.405.39-.167a.2.2 0 1 0-.159-.369l-.39.168-.174-.404a.201.201 0 0 0-.368.158l.174.404-.42.18a.2.2 0 1 0 .16.37l.419-.181.174.404a.2.2 0 1 0 .368-.158M219.626 395.652l-.174-.404.39-.168a.2.2 0 0 0-.159-.368l-.39.167-.174-.404a.2.2 0 0 0-.368.159l.174.404-.419.18a.2.2 0 1 0 .158.369l.42-.18.174.403a.2.2 0 1 0 .368-.158M208.537 400.226l-.402-.195.187-.387a.204.204 0 1 0-.366-.178l-.188.388-.402-.195a.204.204 0 0 0-.177.367l.402.194-.202.417a.204.204 0 0 0 .367.178l.202-.417.402.194a.204.204 0 0 0 .177-.366M218.007 405.75l-.403-.195.188-.388a.204.204 0 0 0-.367-.177l-.187.388-.402-.195a.204.204 0 0 0-.178.367l.402.194-.201.417a.204.204 0 1 0 .366.177l.202-.417.402.195a.202.202 0 0 0 .272-.095.204.204 0 0 0-.094-.272M221.426 405.75l-.402-.195.187-.388a.204.204 0 1 0-.366-.177l-.188.388-.402-.195a.204.204 0 0 0-.177.367l.402.194-.202.417a.204.204 0 0 0 .367.177l.201-.417.403.195a.202.202 0 0 0 .272-.094.204.204 0 0 0-.095-.273M221.69 408.906l-.403-.195.187-.387a.204.204 0 0 0-.366-.177l-.188.387-.402-.194a.204.204 0 0 0-.177.366l.402.195-.202.417a.203.203 0 1 0 .367.177l.201-.417.403.194a.204.204 0 0 0 .177-.366M217.622 408.74l-.41.098-.093-.395a.192.192 0 1 0-.374.088l.093.395-.41.097a.192.192 0 0 0 .089.374l.41-.097.1.425a.192.192 0 1 0 .374-.088l-.1-.426.41-.097a.193.193 0 0 0 .142-.23.192.192 0 0 0-.23-.143M214.744 409.835l-.411.068-.065-.397a.19.19 0 1 0-.375.062l.065.396-.412.067a.19.19 0 0 0 .062.375l.411-.067.07.426a.19.19 0 0 0 .375-.06l-.07-.428.412-.067a.19.19 0 0 0-.062-.375M207.503 403.74l-.395-.257.248-.38a.215.215 0 1 0-.36-.235l-.248.38-.394-.257a.215.215 0 0 0-.235.36l.395.257-.267.41a.215.215 0 0 0 .36.234l.266-.41.395.258a.216.216 0 0 0 .297-.063.215.215 0 0 0-.062-.297M208.818 408.738l-.395-.257.248-.38a.214.214 0 1 0-.36-.235l-.247.38-.395-.257a.215.215 0 0 0-.235.36l.395.257-.267.409a.215.215 0 1 0 .36.235l.267-.41.394.258a.214.214 0 0 0 .297-.063.215.215 0 0 0-.062-.297M209.607 405.055l-.395-.257.248-.38a.215.215 0 1 0-.36-.235l-.247.38-.395-.257a.215.215 0 0 0-.234.36l.394.257-.267.41a.215.215 0 0 0 .36.234l.267-.41.394.258a.215.215 0 0 0 .235-.36M214.102 400.124l-.174-.405.39-.167a.2.2 0 1 0-.159-.369l-.39.168-.174-.404a.2.2 0 0 0-.368.158l.174.404-.419.18a.2.2 0 1 0 .159.37l.419-.181.174.404a.2.2 0 1 0 .368-.158" fill="#92D2CE"/>
            <path d="M216.824 423.288h-7.137c-1.879 0-3.402-1.55-3.402-3.463v-7.322h13.94v7.322c0 1.913-1.523 3.463-3.401 3.463" fill="#72C4F4"/>
            <path fill="#F5FAFF" d="M206.285 414.608h13.94v-.527h-13.94z"/>
            <path d="M366.474 432.363c0 1.089-3.769 1.972-8.417 1.972-4.65 0-8.417-.883-8.417-1.972 0-1.09 3.767-1.973 8.417-1.973 4.648 0 8.417.883 8.417 1.973" fill="#007CF4"/>
            <path d="M363.278 427.736h2.886v-6.789h-2.886v6.789zm-11.008-9.709v10.287c0 2.162 1.805 3.917 4.029 3.917h2.951c2.142 0 3.876-1.63 4.003-3.682H367v-8.415h-3.722v-2.107H352.27z" fill="#FFF"/>
            <g fill-rule="nonzero">
                <path d="M356.9 424.8c-.428-2.165-.022-3.585-.022-3.585s-.108.865.745 2.258c-.01 1.728.322 2.629.322 2.629l.069-.052-.069.061s-.506-.422-1.044-1.311zM358.918 424.493c.205.211.396.357.534.426l-.002-.001s.155.057.182.019c.19-.204.236-.585.11-1.301-.72-.42-.812-1.076-.812-1.076s-.13.91-.012 1.933z" fill="#364FDE"/>
                <path d="M356.878 421.215s-.593 2.074.41 5.029c.028.085 0 .18-.072.237l-1.058.757c-.1.076-.246.029-.292-.095-.283-.786-1.058-3.39-.274-6.24.037-.114.155-.18.265-.133l1.021.445z" fill="#56D8FF"/>
                <path d="m358.903 425.382-.958.72s-.51-1.383-.246-4.006c.018-.152.173-.227.301-.152l.93.616s-.182 1.278.082 2.51a.304.304 0 0 1-.11.312zM360.672 423.782l-.885-.597c-.054-.038-.136.019-.118.085.21.957.182 1.43-.037 1.667-.027.038-.182-.019-.182-.019.146.076.182.038.182.038.146-.114.693-.521 1.04-.767.137-.104.137-.313 0-.407z" fill="#667DFF"/>
            </g>
        </g>
    </g>
</svg>
